# MagicaVoxel @ Ephtracy

# group
g appel powerup

# material
mtllib appel powerup.mtl
usemtl palette

# normals
vn -1 0 0
vn 1 0 0
vn 0 0 1
vn 0 0 -1
vn 0 -1 0
vn 0 1 0

# texcoords
vt 0.0214844 0.5
vt 0.373047 0.5
vt 0.841797 0.5
vt 0.958984 0.5
vt 0.994141 0.5

# verts
v -10 0 -4
v -10 0 -7
v -10 1 -4
v -10 1 -7
v -9 0 -3
v -9 0 -4
v -9 0 -7
v -9 0 -8
v -9 1 -3
v -9 1 -4
v -9 1 -7
v -9 1 -8
v -8 0 -2
v -8 0 -3
v -8 0 -8
v -8 0 -9
v -8 1 -2
v -8 1 -3
v -8 1 -8
v -8 1 -9
v -7 0 -1
v -7 0 -2
v -7 0 -9
v -7 0 -10
v -7 1 -1
v -7 1 -2
v -7 1 -9
v -7 1 -10
v -6 0 6
v -6 0 -1
v -6 1 6
v -6 1 -1
v -5 0 8
v -5 0 6
v -5 1 8
v -5 1 6
v -4 0 9
v -4 0 8
v -4 1 9
v -4 1 8
v -3 0 10
v -3 0 9
v -3 1 10
v -3 1 9
v 0 0 -5
v 0 0 -6
v 0 1 -5
v 0 1 -6
v 1 0 -6
v 1 0 -7
v 1 1 -6
v 1 1 -7
v 2 0 -7
v 2 0 -8
v 2 1 -7
v 2 1 -8
v 3 0 10
v 3 0 9
v 3 1 10
v 3 1 9
v -5 0 -5
v -5 0 -6
v -5 1 -5
v -5 1 -6
v -4 0 -9
v -4 0 -10
v -4 1 -9
v -4 1 -10
v -3 0 -6
v -3 0 -7
v -3 0 -8
v -3 0 -9
v -3 1 -6
v -3 1 -7
v -3 1 -8
v -3 1 -9
v -2 0 -7
v -2 0 -8
v -2 1 -7
v -2 1 -8
v 1 0 10
v 1 0 9
v 1 1 10
v 1 1 9
v 4 0 -5
v 4 0 -6
v 4 0 -7
v 4 0 -8
v 4 1 -5
v 4 1 -6
v 4 1 -7
v 4 1 -8
v 5 0 -6
v 5 0 -7
v 5 1 -6
v 5 1 -7
v 7 0 10
v 7 0 9
v 7 0 -4
v 7 0 -5
v 7 1 10
v 7 1 9
v 7 1 -4
v 7 1 -5
v 8 0 9
v 8 0 8
v 8 0 -3
v 8 0 -4
v 8 1 9
v 8 1 8
v 8 1 -3
v 8 1 -4
v 9 0 8
v 9 0 6
v 9 0 -1
v 9 0 -3
v 9 1 8
v 9 1 6
v 9 1 -1
v 9 1 -3
v 10 0 6
v 10 0 -1
v 10 1 6
v 10 1 -1
v -3 0 10
v -3 1 10
v 1 0 10
v 1 1 10
v 3 0 10
v 3 1 10
v 7 0 10
v 7 1 10
v -4 0 9
v -4 1 9
v -3 0 9
v -3 1 9
v 1 0 9
v 1 1 9
v 3 0 9
v 3 1 9
v 7 0 9
v 7 1 9
v 8 0 9
v 8 1 9
v -5 0 8
v -5 1 8
v -4 0 8
v -4 1 8
v 8 0 8
v 8 1 8
v 9 0 8
v 9 1 8
v -6 0 6
v -6 1 6
v -5 0 6
v -5 1 6
v 9 0 6
v 9 1 6
v 10 0 6
v 10 1 6
v -7 0 -1
v -7 1 -1
v -6 0 -1
v -6 1 -1
v -8 0 -2
v -8 1 -2
v -7 0 -2
v -7 1 -2
v -9 0 -3
v -9 1 -3
v -8 0 -3
v -8 1 -3
v -10 0 -4
v -10 1 -4
v -9 0 -4
v -9 1 -4
v -5 0 -6
v -5 1 -6
v -3 0 -6
v -3 1 -6
v 4 0 -6
v 4 1 -6
v 5 0 -6
v 5 1 -6
v -3 0 -7
v -3 1 -7
v -2 0 -7
v -2 1 -7
v 9 0 -1
v 9 1 -1
v 10 0 -1
v 10 1 -1
v 8 0 -3
v 8 1 -3
v 9 0 -3
v 9 1 -3
v 7 0 -4
v 7 1 -4
v 8 0 -4
v 8 1 -4
v -5 0 -5
v -5 1 -5
v 0 0 -5
v 0 1 -5
v 4 0 -5
v 4 1 -5
v 7 0 -5
v 7 1 -5
v 0 0 -6
v 0 1 -6
v 1 0 -6
v 1 1 -6
v -10 0 -7
v -10 1 -7
v -9 0 -7
v -9 1 -7
v 1 0 -7
v 1 1 -7
v 2 0 -7
v 2 1 -7
v 4 0 -7
v 4 1 -7
v 5 0 -7
v 5 1 -7
v -9 0 -8
v -9 1 -8
v -8 0 -8
v -8 1 -8
v -3 0 -8
v -3 1 -8
v -2 0 -8
v -2 1 -8
v 2 0 -8
v 2 1 -8
v 4 0 -8
v 4 1 -8
v -8 0 -9
v -8 1 -9
v -7 0 -9
v -7 1 -9
v -4 0 -9
v -4 1 -9
v -3 0 -9
v -3 1 -9
v -7 0 -10
v -7 1 -10
v -4 0 -10
v -4 1 -10
v -3 0 10
v 1 0 10
v 3 0 10
v 7 0 10
v -4 0 9
v -3 0 9
v 1 0 9
v 3 0 9
v 7 0 9
v 8 0 9
v -5 0 8
v -4 0 8
v -3 0 8
v 1 0 8
v 3 0 8
v 7 0 8
v 8 0 8
v 9 0 8
v -6 0 6
v -5 0 6
v -4 0 6
v 5 0 6
v 6 0 6
v 8 0 6
v 9 0 6
v 10 0 6
v 5 0 5
v 6 0 5
v 7 0 5
v 6 0 2
v 7 0 2
v -7 0 -1
v -6 0 -1
v -5 0 -1
v -4 0 -1
v 8 0 -1
v 9 0 -1
v 10 0 -1
v -8 0 -2
v -7 0 -2
v -4 0 -2
v -3 0 -2
v 1 0 -2
v 3 0 -2
v -9 0 -3
v -8 0 -3
v -7 0 -3
v -4 0 -3
v -3 0 -3
v -2 0 -3
v 0 0 -3
v 1 0 -3
v 3 0 -3
v 4 0 -3
v 7 0 -3
v 8 0 -3
v 9 0 -3
v -10 0 -4
v -9 0 -4
v -8 0 -4
v -5 0 -4
v -3 0 -4
v -2 0 -4
v 0 0 -4
v 4 0 -4
v 7 0 -4
v 8 0 -4
v -6 0 -5
v -5 0 -5
v 0 0 -5
v 4 0 -5
v 7 0 -5
v -6 0 -6
v -5 0 -6
v -3 0 -6
v 0 0 -6
v 1 0 -6
v 2 0 -6
v 3 0 -6
v 4 0 -6
v 5 0 -6
v -10 0 -7
v -9 0 -7
v -8 0 -7
v -7 0 -7
v -6 0 -7
v -5 0 -7
v -3 0 -7
v -2 0 -7
v 1 0 -7
v 2 0 -7
v 4 0 -7
v 5 0 -7
v -9 0 -8
v -8 0 -8
v -7 0 -8
v -6 0 -8
v -4 0 -8
v -3 0 -8
v -2 0 -8
v 2 0 -8
v 4 0 -8
v -8 0 -9
v -7 0 -9
v -4 0 -9
v -3 0 -9
v -7 0 -10
v -4 0 -10
v -3 1 10
v 1 1 10
v 3 1 10
v 7 1 10
v -4 1 9
v -3 1 9
v 1 1 9
v 3 1 9
v 7 1 9
v 8 1 9
v -5 1 8
v -4 1 8
v -3 1 8
v 1 1 8
v 3 1 8
v 7 1 8
v 8 1 8
v 9 1 8
v -6 1 6
v -5 1 6
v -4 1 6
v 5 1 6
v 6 1 6
v 8 1 6
v 9 1 6
v 10 1 6
v 5 1 5
v 6 1 5
v 7 1 5
v 6 1 2
v 7 1 2
v -7 1 -1
v -6 1 -1
v -5 1 -1
v -4 1 -1
v 8 1 -1
v 9 1 -1
v 10 1 -1
v -8 1 -2
v -7 1 -2
v -4 1 -2
v -3 1 -2
v 1 1 -2
v 3 1 -2
v -9 1 -3
v -8 1 -3
v -7 1 -3
v -4 1 -3
v -3 1 -3
v -2 1 -3
v 0 1 -3
v 1 1 -3
v 3 1 -3
v 4 1 -3
v 7 1 -3
v 8 1 -3
v 9 1 -3
v -10 1 -4
v -9 1 -4
v -8 1 -4
v -5 1 -4
v -3 1 -4
v -2 1 -4
v 0 1 -4
v 4 1 -4
v 7 1 -4
v 8 1 -4
v -6 1 -5
v -5 1 -5
v 0 1 -5
v 4 1 -5
v 7 1 -5
v -6 1 -6
v -5 1 -6
v -3 1 -6
v 0 1 -6
v 1 1 -6
v 2 1 -6
v 3 1 -6
v 4 1 -6
v 5 1 -6
v -10 1 -7
v -9 1 -7
v -8 1 -7
v -7 1 -7
v -6 1 -7
v -5 1 -7
v -3 1 -7
v -2 1 -7
v 1 1 -7
v 2 1 -7
v 4 1 -7
v 5 1 -7
v -9 1 -8
v -8 1 -8
v -7 1 -8
v -6 1 -8
v -4 1 -8
v -3 1 -8
v -2 1 -8
v 2 1 -8
v 4 1 -8
v -8 1 -9
v -7 1 -9
v -4 1 -9
v -3 1 -9
v -7 1 -10
v -4 1 -10

# faces
f 3/5/1 2/5/1 1/5/1
f 4/5/1 2/5/1 3/5/1
f 9/5/1 6/5/1 5/5/1
f 10/5/1 6/5/1 9/5/1
f 11/5/1 8/5/1 7/5/1
f 12/5/1 8/5/1 11/5/1
f 17/5/1 14/5/1 13/5/1
f 18/5/1 14/5/1 17/5/1
f 19/5/1 16/5/1 15/5/1
f 20/5/1 16/5/1 19/5/1
f 25/5/1 22/5/1 21/5/1
f 26/5/1 22/5/1 25/5/1
f 27/5/1 24/5/1 23/5/1
f 28/5/1 24/5/1 27/5/1
f 31/5/1 30/5/1 29/5/1
f 32/5/1 30/5/1 31/5/1
f 35/5/1 34/5/1 33/5/1
f 36/5/1 34/5/1 35/5/1
f 39/5/1 38/5/1 37/5/1
f 40/5/1 38/5/1 39/5/1
f 43/5/1 42/5/1 41/5/1
f 44/5/1 42/5/1 43/5/1
f 47/5/1 46/5/1 45/5/1
f 48/5/1 46/5/1 47/5/1
f 51/5/1 50/5/1 49/5/1
f 52/5/1 50/5/1 51/5/1
f 55/5/1 54/5/1 53/5/1
f 56/5/1 54/5/1 55/5/1
f 59/5/1 58/5/1 57/5/1
f 60/5/1 58/5/1 59/5/1
f 61/5/2 62/5/2 63/5/2
f 63/5/2 62/5/2 64/5/2
f 65/5/2 66/5/2 67/5/2
f 67/5/2 66/5/2 68/5/2
f 69/5/2 70/5/2 73/5/2
f 73/5/2 70/5/2 74/5/2
f 71/5/2 72/5/2 75/5/2
f 75/5/2 72/5/2 76/5/2
f 77/5/2 78/5/2 79/5/2
f 79/5/2 78/5/2 80/5/2
f 81/5/2 82/5/2 83/5/2
f 83/5/2 82/5/2 84/5/2
f 85/5/2 86/5/2 89/5/2
f 89/5/2 86/5/2 90/5/2
f 87/5/2 88/5/2 91/5/2
f 91/5/2 88/5/2 92/5/2
f 93/5/2 94/5/2 95/5/2
f 95/5/2 94/5/2 96/5/2
f 97/5/2 98/5/2 101/5/2
f 101/5/2 98/5/2 102/5/2
f 99/5/2 100/5/2 103/5/2
f 103/5/2 100/5/2 104/5/2
f 105/5/2 106/5/2 109/5/2
f 109/5/2 106/5/2 110/5/2
f 107/5/2 108/5/2 111/5/2
f 111/5/2 108/5/2 112/5/2
f 113/5/2 114/5/2 117/5/2
f 117/5/2 114/5/2 118/5/2
f 115/5/2 116/5/2 119/5/2
f 119/5/2 116/5/2 120/5/2
f 121/5/2 122/5/2 123/5/2
f 123/5/2 122/5/2 124/5/2
f 127/5/3 126/5/3 125/5/3
f 128/5/3 126/5/3 127/5/3
f 131/5/3 130/5/3 129/5/3
f 132/5/3 130/5/3 131/5/3
f 135/5/3 134/5/3 133/5/3
f 136/5/3 134/5/3 135/5/3
f 139/5/3 138/5/3 137/5/3
f 140/5/3 138/5/3 139/5/3
f 143/5/3 142/5/3 141/5/3
f 144/5/3 142/5/3 143/5/3
f 147/5/3 146/5/3 145/5/3
f 148/5/3 146/5/3 147/5/3
f 151/5/3 150/5/3 149/5/3
f 152/5/3 150/5/3 151/5/3
f 155/5/3 154/5/3 153/5/3
f 156/5/3 154/5/3 155/5/3
f 159/5/3 158/5/3 157/5/3
f 160/5/3 158/5/3 159/5/3
f 163/5/3 162/5/3 161/5/3
f 164/5/3 162/5/3 163/5/3
f 167/5/3 166/5/3 165/5/3
f 168/5/3 166/5/3 167/5/3
f 171/5/3 170/5/3 169/5/3
f 172/5/3 170/5/3 171/5/3
f 175/5/3 174/5/3 173/5/3
f 176/5/3 174/5/3 175/5/3
f 179/5/3 178/5/3 177/5/3
f 180/5/3 178/5/3 179/5/3
f 183/5/3 182/5/3 181/5/3
f 184/5/3 182/5/3 183/5/3
f 187/5/3 186/5/3 185/5/3
f 188/5/3 186/5/3 187/5/3
f 189/5/4 190/5/4 191/5/4
f 191/5/4 190/5/4 192/5/4
f 193/5/4 194/5/4 195/5/4
f 195/5/4 194/5/4 196/5/4
f 197/5/4 198/5/4 199/5/4
f 199/5/4 198/5/4 200/5/4
f 201/5/4 202/5/4 203/5/4
f 203/5/4 202/5/4 204/5/4
f 205/5/4 206/5/4 207/5/4
f 207/5/4 206/5/4 208/5/4
f 209/5/4 210/5/4 211/5/4
f 211/5/4 210/5/4 212/5/4
f 213/5/4 214/5/4 215/5/4
f 215/5/4 214/5/4 216/5/4
f 217/5/4 218/5/4 219/5/4
f 219/5/4 218/5/4 220/5/4
f 221/5/4 222/5/4 223/5/4
f 223/5/4 222/5/4 224/5/4
f 225/5/4 226/5/4 227/5/4
f 227/5/4 226/5/4 228/5/4
f 229/5/4 230/5/4 231/5/4
f 231/5/4 230/5/4 232/5/4
f 233/5/4 234/5/4 235/5/4
f 235/5/4 234/5/4 236/5/4
f 237/5/4 238/5/4 239/5/4
f 239/5/4 238/5/4 240/5/4
f 241/5/4 242/5/4 243/5/4
f 243/5/4 242/5/4 244/5/4
f 245/5/4 246/5/4 247/5/4
f 247/5/4 246/5/4 248/5/4
f 254/5/5 250/5/5 249/5/5
f 255/5/5 250/5/5 254/5/5
f 256/5/5 252/5/5 251/5/5
f 257/5/5 252/5/5 256/5/5
f 260/5/5 254/5/5 253/5/5
f 261/3/5 255/3/5 254/3/5
f 261/5/5 254/5/5 260/5/5
f 262/5/5 256/5/5 255/5/5
f 262/3/5 255/3/5 261/3/5
f 263/3/5 257/3/5 256/3/5
f 263/5/5 256/5/5 262/5/5
f 264/5/5 258/5/5 257/5/5
f 264/3/5 257/3/5 263/3/5
f 265/5/5 258/5/5 264/5/5
f 268/5/5 260/5/5 259/5/5
f 269/3/5 263/3/5 262/3/5
f 269/3/5 261/3/5 260/3/5
f 269/5/5 260/5/5 268/5/5
f 269/3/5 262/3/5 261/3/5
f 269/3/5 265/3/5 264/3/5
f 269/3/5 264/3/5 263/3/5
f 270/3/5 265/3/5 269/3/5
f 271/3/5 265/3/5 270/3/5
f 272/5/5 266/5/5 265/5/5
f 272/3/5 265/3/5 271/3/5
f 273/5/5 266/5/5 272/5/5
f 275/4/5 271/4/5 270/4/5
f 275/3/5 269/3/5 268/3/5
f 275/3/5 270/3/5 269/3/5
f 276/3/5 273/3/5 272/3/5
f 276/4/5 271/4/5 275/4/5
f 276/3/5 272/3/5 271/3/5
f 277/3/5 273/3/5 276/3/5
f 278/3/5 276/3/5 275/3/5
f 278/4/5 277/4/5 276/4/5
f 279/3/5 273/3/5 277/3/5
f 279/4/5 277/4/5 278/4/5
f 281/5/5 268/5/5 267/5/5
f 282/3/5 275/3/5 268/3/5
f 282/3/5 278/3/5 275/3/5
f 282/5/5 268/5/5 281/5/5
f 282/3/5 279/3/5 278/3/5
f 283/3/5 279/3/5 282/3/5
f 284/3/5 273/3/5 279/3/5
f 284/3/5 279/3/5 283/3/5
f 285/5/5 274/5/5 273/5/5
f 285/3/5 273/3/5 284/3/5
f 286/5/5 274/5/5 285/5/5
f 288/5/5 283/5/5 282/5/5
f 288/5/5 281/5/5 280/5/5
f 288/5/5 282/5/5 281/5/5
f 289/3/5 284/3/5 283/3/5
f 289/5/5 283/5/5 288/5/5
f 290/3/5 284/3/5 289/3/5
f 291/3/5 284/3/5 290/3/5
f 292/3/5 284/3/5 291/3/5
f 294/5/5 288/5/5 287/5/5
f 295/1/5 289/1/5 288/1/5
f 295/5/5 288/5/5 294/5/5
f 296/5/5 290/5/5 289/5/5
f 296/1/5 289/1/5 295/1/5
f 297/3/5 291/3/5 290/3/5
f 297/5/5 290/5/5 296/5/5
f 298/3/5 291/3/5 297/3/5
f 299/3/5 291/3/5 298/3/5
f 300/2/5 292/2/5 291/2/5
f 300/3/5 291/3/5 299/3/5
f 301/3/5 284/3/5 292/3/5
f 301/2/5 292/2/5 300/2/5
f 302/3/5 284/3/5 301/3/5
f 303/3/5 284/3/5 302/3/5
f 304/5/5 285/5/5 284/5/5
f 304/3/5 284/3/5 303/3/5
f 305/5/5 285/5/5 304/5/5
f 307/5/5 294/5/5 293/5/5
f 308/1/5 295/1/5 294/1/5
f 308/1/5 296/1/5 295/1/5
f 308/5/5 294/5/5 307/5/5
f 308/1/5 297/1/5 296/1/5
f 309/1/5 297/1/5 308/1/5
f 310/5/5 298/5/5 297/5/5
f 310/1/5 297/1/5 309/1/5
f 311/3/5 299/3/5 298/3/5
f 311/5/5 298/5/5 310/5/5
f 312/5/5 300/5/5 299/5/5
f 312/3/5 299/3/5 311/3/5
f 313/3/5 303/3/5 302/3/5
f 313/5/5 302/5/5 301/5/5
f 314/5/5 304/5/5 303/5/5
f 314/3/5 303/3/5 313/3/5
f 315/5/5 304/5/5 314/5/5
f 316/1/5 309/1/5 308/1/5
f 316/1/5 308/1/5 307/1/5
f 317/5/5 311/5/5 310/5/5
f 317/1/5 309/1/5 316/1/5
f 317/5/5 310/5/5 309/5/5
f 317/5/5 312/5/5 311/5/5
f 318/5/5 300/5/5 312/5/5
f 318/5/5 312/5/5 317/5/5
f 319/5/5 314/5/5 313/5/5
f 319/5/5 313/5/5 301/5/5
f 320/5/5 314/5/5 319/5/5
f 321/1/5 316/1/5 307/1/5
f 321/5/5 317/5/5 316/5/5
f 322/5/5 317/5/5 321/5/5
f 324/5/5 300/5/5 318/5/5
f 325/2/5 301/2/5 300/2/5
f 325/5/5 300/5/5 324/5/5
f 326/2/5 301/2/5 325/2/5
f 327/5/5 319/5/5 301/5/5
f 327/2/5 301/2/5 326/2/5
f 328/5/5 319/5/5 327/5/5
f 330/5/5 307/5/5 306/5/5
f 331/1/5 321/1/5 307/1/5
f 331/5/5 307/5/5 330/5/5
f 331/1/5 322/1/5 321/1/5
f 332/1/5 322/1/5 331/1/5
f 333/1/5 322/1/5 332/1/5
f 334/1/5 322/1/5 333/1/5
f 335/5/5 323/5/5 322/5/5
f 335/1/5 322/1/5 334/1/5
f 336/5/5 323/5/5 335/5/5
f 338/5/5 326/5/5 325/5/5
f 339/2/5 327/2/5 326/2/5
f 339/5/5 326/5/5 338/5/5
f 339/2/5 328/2/5 327/2/5
f 340/5/5 329/5/5 328/5/5
f 340/2/5 328/2/5 339/2/5
f 341/5/5 329/5/5 340/5/5
f 342/5/5 332/5/5 331/5/5
f 343/1/5 333/1/5 332/1/5
f 343/5/5 332/5/5 342/5/5
f 344/5/5 334/5/5 333/5/5
f 344/1/5 333/1/5 343/1/5
f 345/1/5 336/1/5 335/1/5
f 345/5/5 334/5/5 344/5/5
f 345/1/5 335/1/5 334/1/5
f 346/1/5 336/1/5 345/1/5
f 347/5/5 337/5/5 336/5/5
f 347/1/5 336/1/5 346/1/5
f 348/5/5 337/5/5 347/5/5
f 349/5/5 340/5/5 339/5/5
f 350/5/5 340/5/5 349/5/5
f 351/5/5 344/5/5 343/5/5
f 352/1/5 346/1/5 345/1/5
f 352/5/5 344/5/5 351/5/5
f 352/1/5 345/1/5 344/1/5
f 353/5/5 347/5/5 346/5/5
f 353/1/5 346/1/5 352/1/5
f 354/5/5 347/5/5 353/5/5
f 355/5/5 353/5/5 352/5/5
f 356/5/5 353/5/5 355/5/5
f 357/5/6 358/5/6 362/5/6
f 362/5/6 358/5/6 363/5/6
f 359/5/6 360/5/6 364/5/6
f 364/5/6 360/5/6 365/5/6
f 361/5/6 362/5/6 368/5/6
f 362/3/6 363/3/6 369/3/6
f 368/5/6 362/5/6 369/5/6
f 363/5/6 364/5/6 370/5/6
f 369/3/6 363/3/6 370/3/6
f 364/3/6 365/3/6 371/3/6
f 370/5/6 364/5/6 371/5/6
f 365/5/6 366/5/6 372/5/6
f 371/3/6 365/3/6 372/3/6
f 372/5/6 366/5/6 373/5/6
f 367/5/6 368/5/6 376/5/6
f 370/3/6 371/3/6 377/3/6
f 368/3/6 369/3/6 377/3/6
f 376/5/6 368/5/6 377/5/6
f 369/3/6 370/3/6 377/3/6
f 372/3/6 373/3/6 377/3/6
f 371/3/6 372/3/6 377/3/6
f 377/3/6 373/3/6 378/3/6
f 378/3/6 373/3/6 379/3/6
f 373/5/6 374/5/6 380/5/6
f 379/3/6 373/3/6 380/3/6
f 380/5/6 374/5/6 381/5/6
f 378/4/6 379/4/6 383/4/6
f 376/3/6 377/3/6 383/3/6
f 377/3/6 378/3/6 383/3/6
f 380/3/6 381/3/6 384/3/6
f 383/4/6 379/4/6 384/4/6
f 379/3/6 380/3/6 384/3/6
f 384/3/6 381/3/6 385/3/6
f 383/3/6 384/3/6 386/3/6
f 384/4/6 385/4/6 386/4/6
f 385/3/6 381/3/6 387/3/6
f 386/4/6 385/4/6 387/4/6
f 375/5/6 376/5/6 389/5/6
f 376/3/6 383/3/6 390/3/6
f 383/3/6 386/3/6 390/3/6
f 389/5/6 376/5/6 390/5/6
f 386/3/6 387/3/6 390/3/6
f 390/3/6 387/3/6 391/3/6
f 387/3/6 381/3/6 392/3/6
f 391/3/6 387/3/6 392/3/6
f 381/5/6 382/5/6 393/5/6
f 392/3/6 381/3/6 393/3/6
f 393/5/6 382/5/6 394/5/6
f 390/5/6 391/5/6 396/5/6
f 388/5/6 389/5/6 396/5/6
f 389/5/6 390/5/6 396/5/6
f 391/3/6 392/3/6 397/3/6
f 396/5/6 391/5/6 397/5/6
f 397/3/6 392/3/6 398/3/6
f 398/3/6 392/3/6 399/3/6
f 399/3/6 392/3/6 400/3/6
f 395/5/6 396/5/6 402/5/6
f 396/1/6 397/1/6 403/1/6
f 402/5/6 396/5/6 403/5/6
f 397/5/6 398/5/6 404/5/6
f 403/1/6 397/1/6 404/1/6
f 398/3/6 399/3/6 405/3/6
f 404/5/6 398/5/6 405/5/6
f 405/3/6 399/3/6 406/3/6
f 406/3/6 399/3/6 407/3/6
f 399/2/6 400/2/6 408/2/6
f 407/3/6 399/3/6 408/3/6
f 400/3/6 392/3/6 409/3/6
f 408/2/6 400/2/6 409/2/6
f 409/3/6 392/3/6 410/3/6
f 410/3/6 392/3/6 411/3/6
f 392/5/6 393/5/6 412/5/6
f 411/3/6 392/3/6 412/3/6
f 412/5/6 393/5/6 413/5/6
f 401/5/6 402/5/6 415/5/6
f 402/1/6 403/1/6 416/1/6
f 403/1/6 404/1/6 416/1/6
f 415/5/6 402/5/6 416/5/6
f 404/1/6 405/1/6 416/1/6
f 416/1/6 405/1/6 417/1/6
f 405/5/6 406/5/6 418/5/6
f 417/1/6 405/1/6 418/1/6
f 406/3/6 407/3/6 419/3/6
f 418/5/6 406/5/6 419/5/6
f 407/5/6 408/5/6 420/5/6
f 419/3/6 407/3/6 420/3/6
f 410/3/6 411/3/6 421/3/6
f 409/5/6 410/5/6 421/5/6
f 411/5/6 412/5/6 422/5/6
f 421/3/6 411/3/6 422/3/6
f 422/5/6 412/5/6 423/5/6
f 416/1/6 417/1/6 424/1/6
f 415/1/6 416/1/6 424/1/6
f 418/5/6 419/5/6 425/5/6
f 424/1/6 417/1/6 425/1/6
f 417/5/6 418/5/6 425/5/6
f 419/5/6 420/5/6 425/5/6
f 420/5/6 408/5/6 426/5/6
f 425/5/6 420/5/6 426/5/6
f 421/5/6 422/5/6 427/5/6
f 409/5/6 421/5/6 427/5/6
f 427/5/6 422/5/6 428/5/6
f 415/1/6 424/1/6 429/1/6
f 424/5/6 425/5/6 429/5/6
f 429/5/6 425/5/6 430/5/6
f 426/5/6 408/5/6 432/5/6
f 408/2/6 409/2/6 433/2/6
f 432/5/6 408/5/6 433/5/6
f 433/2/6 409/2/6 434/2/6
f 409/5/6 427/5/6 435/5/6
f 434/2/6 409/2/6 435/2/6
f 435/5/6 427/5/6 436/5/6
f 414/5/6 415/5/6 438/5/6
f 415/1/6 429/1/6 439/1/6
f 438/5/6 415/5/6 439/5/6
f 429/1/6 430/1/6 439/1/6
f 439/1/6 430/1/6 440/1/6
f 440/1/6 430/1/6 441/1/6
f 441/1/6 430/1/6 442/1/6
f 430/5/6 431/5/6 443/5/6
f 442/1/6 430/1/6 443/1/6
f 443/5/6 431/5/6 444/5/6
f 433/5/6 434/5/6 446/5/6
f 434/2/6 435/2/6 447/2/6
f 446/5/6 434/5/6 447/5/6
f 435/2/6 436/2/6 447/2/6
f 436/5/6 437/5/6 448/5/6
f 447/2/6 436/2/6 448/2/6
f 448/5/6 437/5/6 449/5/6
f 439/5/6 440/5/6 450/5/6
f 440/1/6 441/1/6 451/1/6
f 450/5/6 440/5/6 451/5/6
f 441/5/6 442/5/6 452/5/6
f 451/1/6 441/1/6 452/1/6
f 443/1/6 444/1/6 453/1/6
f 452/5/6 442/5/6 453/5/6
f 442/1/6 443/1/6 453/1/6
f 453/1/6 444/1/6 454/1/6
f 444/5/6 445/5/6 455/5/6
f 454/1/6 444/1/6 455/1/6
f 455/5/6 445/5/6 456/5/6
f 447/5/6 448/5/6 457/5/6
f 457/5/6 448/5/6 458/5/6
f 451/5/6 452/5/6 459/5/6
f 453/1/6 454/1/6 460/1/6
f 459/5/6 452/5/6 460/5/6
f 452/1/6 453/1/6 460/1/6
f 454/5/6 455/5/6 461/5/6
f 460/1/6 454/1/6 461/1/6
f 461/5/6 455/5/6 462/5/6
f 460/5/6 461/5/6 463/5/6
f 463/5/6 461/5/6 464/5/6
