# MagicaVoxel @ Ephtracy

# group
g apple

# material
mtllib apple.mtl
usemtl palette

# normals
vn -1 0 0
vn 1 0 0
vn 0 0 1
vn 0 0 -1
vn 0 -1 0
vn 0 1 0

# texcoords
vt 0.373047 0.5
vt 0.841797 0.5
vt 0.958984 0.5

# verts
v -7 0 5
v -7 0 -2
v -7 1 5
v -7 1 -2
v -6 0 7
v -6 0 5
v -6 0 -2
v -6 0 -4
v -6 1 7
v -6 1 5
v -6 1 -2
v -6 1 -4
v -5 0 8
v -5 0 7
v -5 0 -4
v -5 0 -5
v -5 1 8
v -5 1 7
v -5 1 -4
v -5 1 -5
v -1 0 -4
v -1 0 -7
v -1 1 -4
v -1 1 -7
v 0 0 -7
v 0 0 -8
v 0 1 -7
v 0 1 -8
v 1 0 8
v 1 0 7
v 1 1 8
v 1 1 7
v 2 0 -4
v 2 0 -5
v 2 1 -4
v 2 1 -5
v -2 0 -4
v -2 0 -5
v -2 1 -4
v -2 1 -5
v -1 0 8
v -1 0 7
v -1 1 8
v -1 1 7
v 1 0 -4
v 1 0 -7
v 1 1 -4
v 1 1 -7
v 2 0 -7
v 2 0 -8
v 2 1 -7
v 2 1 -8
v 5 0 8
v 5 0 7
v 5 0 -4
v 5 0 -5
v 5 1 8
v 5 1 7
v 5 1 -4
v 5 1 -5
v 6 0 7
v 6 0 5
v 6 0 -2
v 6 0 -4
v 6 1 7
v 6 1 5
v 6 1 -2
v 6 1 -4
v 7 0 5
v 7 0 -2
v 7 1 5
v 7 1 -2
v -5 0 8
v -5 1 8
v -1 0 8
v -1 1 8
v 1 0 8
v 1 1 8
v 5 0 8
v 5 1 8
v -6 0 7
v -6 1 7
v -5 0 7
v -5 1 7
v -1 0 7
v -1 1 7
v 1 0 7
v 1 1 7
v 5 0 7
v 5 1 7
v 6 0 7
v 6 1 7
v -7 0 5
v -7 1 5
v -6 0 5
v -6 1 5
v 6 0 5
v 6 1 5
v 7 0 5
v 7 1 5
v 1 0 -7
v 1 1 -7
v 2 0 -7
v 2 1 -7
v -7 0 -2
v -7 1 -2
v -6 0 -2
v -6 1 -2
v 6 0 -2
v 6 1 -2
v 7 0 -2
v 7 1 -2
v -6 0 -4
v -6 1 -4
v -5 0 -4
v -5 1 -4
v -2 0 -4
v -2 1 -4
v -1 0 -4
v -1 1 -4
v 1 0 -4
v 1 1 -4
v 2 0 -4
v 2 1 -4
v 5 0 -4
v 5 1 -4
v 6 0 -4
v 6 1 -4
v -5 0 -5
v -5 1 -5
v -2 0 -5
v -2 1 -5
v 2 0 -5
v 2 1 -5
v 5 0 -5
v 5 1 -5
v -1 0 -7
v -1 1 -7
v 0 0 -7
v 0 1 -7
v 0 0 -8
v 0 1 -8
v 2 0 -8
v 2 1 -8
v -5 0 8
v -1 0 8
v 1 0 8
v 5 0 8
v -6 0 7
v -5 0 7
v -1 0 7
v 1 0 7
v 5 0 7
v 6 0 7
v -7 0 5
v -6 0 5
v 3 0 5
v 4 0 5
v 6 0 5
v 7 0 5
v 3 0 4
v 4 0 4
v 5 0 4
v 4 0 1
v 5 0 1
v -7 0 -2
v -6 0 -2
v 6 0 -2
v 7 0 -2
v -1 0 -3
v 1 0 -3
v -6 0 -4
v -5 0 -4
v -2 0 -4
v -1 0 -4
v 1 0 -4
v 2 0 -4
v 5 0 -4
v 6 0 -4
v -5 0 -5
v -2 0 -5
v 2 0 -5
v 5 0 -5
v -1 0 -7
v 0 0 -7
v 1 0 -7
v 2 0 -7
v 0 0 -8
v 2 0 -8
v -5 1 8
v -1 1 8
v 1 1 8
v 5 1 8
v -6 1 7
v -5 1 7
v -1 1 7
v 1 1 7
v 5 1 7
v 6 1 7
v -7 1 5
v -6 1 5
v 3 1 5
v 4 1 5
v 6 1 5
v 7 1 5
v 3 1 4
v 4 1 4
v 5 1 4
v 4 1 1
v 5 1 1
v -7 1 -2
v -6 1 -2
v 6 1 -2
v 7 1 -2
v -1 1 -3
v 1 1 -3
v -6 1 -4
v -5 1 -4
v -2 1 -4
v -1 1 -4
v 1 1 -4
v 2 1 -4
v 5 1 -4
v 6 1 -4
v -5 1 -5
v -2 1 -5
v 2 1 -5
v 5 1 -5
v -1 1 -7
v 0 1 -7
v 1 1 -7
v 2 1 -7
v 0 1 -8
v 2 1 -8

# faces
f 3/2/1 2/2/1 1/2/1
f 4/2/1 2/2/1 3/2/1
f 9/2/1 6/2/1 5/2/1
f 10/2/1 6/2/1 9/2/1
f 11/2/1 8/2/1 7/2/1
f 12/2/1 8/2/1 11/2/1
f 17/2/1 14/2/1 13/2/1
f 18/2/1 14/2/1 17/2/1
f 19/2/1 16/2/1 15/2/1
f 20/2/1 16/2/1 19/2/1
f 23/1/1 22/1/1 21/1/1
f 24/1/1 22/1/1 23/1/1
f 27/1/1 26/1/1 25/1/1
f 28/1/1 26/1/1 27/1/1
f 31/2/1 30/2/1 29/2/1
f 32/2/1 30/2/1 31/2/1
f 35/2/1 34/2/1 33/2/1
f 36/2/1 34/2/1 35/2/1
f 37/2/2 38/2/2 39/2/2
f 39/2/2 38/2/2 40/2/2
f 41/2/2 42/2/2 43/2/2
f 43/2/2 42/2/2 44/2/2
f 45/1/2 46/1/2 47/1/2
f 47/1/2 46/1/2 48/1/2
f 49/1/2 50/1/2 51/1/2
f 51/1/2 50/1/2 52/1/2
f 53/2/2 54/2/2 57/2/2
f 57/2/2 54/2/2 58/2/2
f 55/2/2 56/2/2 59/2/2
f 59/2/2 56/2/2 60/2/2
f 61/2/2 62/2/2 65/2/2
f 65/2/2 62/2/2 66/2/2
f 63/2/2 64/2/2 67/2/2
f 67/2/2 64/2/2 68/2/2
f 69/2/2 70/2/2 71/2/2
f 71/2/2 70/2/2 72/2/2
f 75/2/3 74/2/3 73/2/3
f 76/2/3 74/2/3 75/2/3
f 79/2/3 78/2/3 77/2/3
f 80/2/3 78/2/3 79/2/3
f 83/2/3 82/2/3 81/2/3
f 84/2/3 82/2/3 83/2/3
f 87/2/3 86/2/3 85/2/3
f 88/2/3 86/2/3 87/2/3
f 91/2/3 90/2/3 89/2/3
f 92/2/3 90/2/3 91/2/3
f 95/2/3 94/2/3 93/2/3
f 96/2/3 94/2/3 95/2/3
f 99/2/3 98/2/3 97/2/3
f 100/2/3 98/2/3 99/2/3
f 103/1/3 102/1/3 101/1/3
f 104/1/3 102/1/3 103/1/3
f 105/2/4 106/2/4 107/2/4
f 107/2/4 106/2/4 108/2/4
f 109/2/4 110/2/4 111/2/4
f 111/2/4 110/2/4 112/2/4
f 113/2/4 114/2/4 115/2/4
f 115/2/4 114/2/4 116/2/4
f 117/2/4 118/2/4 119/2/4
f 119/2/4 118/2/4 120/2/4
f 121/2/4 122/2/4 123/2/4
f 123/2/4 122/2/4 124/2/4
f 125/2/4 126/2/4 127/2/4
f 127/2/4 126/2/4 128/2/4
f 129/2/4 130/2/4 131/2/4
f 131/2/4 130/2/4 132/2/4
f 133/2/4 134/2/4 135/2/4
f 135/2/4 134/2/4 136/2/4
f 137/1/4 138/1/4 139/1/4
f 139/1/4 138/1/4 140/1/4
f 141/1/4 142/1/4 143/1/4
f 143/1/4 142/1/4 144/1/4
f 150/2/5 146/2/5 145/2/5
f 151/2/5 146/2/5 150/2/5
f 152/2/5 148/2/5 147/2/5
f 153/2/5 148/2/5 152/2/5
f 156/2/5 151/2/5 150/2/5
f 156/2/5 154/2/5 153/2/5
f 156/2/5 153/2/5 152/2/5
f 156/2/5 152/2/5 151/2/5
f 156/2/5 150/2/5 149/2/5
f 157/2/5 154/2/5 156/2/5
f 158/2/5 154/2/5 157/2/5
f 159/2/5 154/2/5 158/2/5
f 161/2/5 156/2/5 155/2/5
f 161/2/5 157/2/5 156/2/5
f 161/3/5 158/3/5 157/3/5
f 162/2/5 160/2/5 159/2/5
f 162/3/5 158/3/5 161/3/5
f 162/2/5 159/2/5 158/2/5
f 163/2/5 160/2/5 162/2/5
f 164/2/5 162/2/5 161/2/5
f 164/3/5 163/3/5 162/3/5
f 165/2/5 160/2/5 163/2/5
f 165/3/5 163/3/5 164/3/5
f 166/2/5 161/2/5 155/2/5
f 166/2/5 164/2/5 161/2/5
f 166/2/5 165/2/5 164/2/5
f 167/2/5 165/2/5 166/2/5
f 168/2/5 160/2/5 165/2/5
f 168/2/5 165/2/5 167/2/5
f 169/2/5 160/2/5 168/2/5
f 170/2/5 168/2/5 167/2/5
f 171/2/5 168/2/5 170/2/5
f 172/2/5 170/2/5 167/2/5
f 173/2/5 170/2/5 172/2/5
f 174/2/5 170/2/5 173/2/5
f 175/1/5 171/1/5 170/1/5
f 175/2/5 170/2/5 174/2/5
f 176/2/5 168/2/5 171/2/5
f 176/1/5 171/1/5 175/1/5
f 177/2/5 168/2/5 176/2/5
f 178/2/5 168/2/5 177/2/5
f 179/2/5 168/2/5 178/2/5
f 180/2/5 174/2/5 173/2/5
f 181/2/5 174/2/5 180/2/5
f 182/2/5 178/2/5 177/2/5
f 183/2/5 178/2/5 182/2/5
f 184/1/5 176/1/5 175/1/5
f 185/1/5 176/1/5 184/1/5
f 186/1/5 176/1/5 185/1/5
f 188/1/5 187/1/5 186/1/5
f 188/1/5 186/1/5 185/1/5
f 189/1/5 187/1/5 188/1/5
f 190/2/6 191/2/6 195/2/6
f 195/2/6 191/2/6 196/2/6
f 192/2/6 193/2/6 197/2/6
f 197/2/6 193/2/6 198/2/6
f 195/2/6 196/2/6 201/2/6
f 198/2/6 199/2/6 201/2/6
f 197/2/6 198/2/6 201/2/6
f 196/2/6 197/2/6 201/2/6
f 194/2/6 195/2/6 201/2/6
f 201/2/6 199/2/6 202/2/6
f 202/2/6 199/2/6 203/2/6
f 203/2/6 199/2/6 204/2/6
f 200/2/6 201/2/6 206/2/6
f 201/2/6 202/2/6 206/2/6
f 202/3/6 203/3/6 206/3/6
f 204/2/6 205/2/6 207/2/6
f 206/3/6 203/3/6 207/3/6
f 203/2/6 204/2/6 207/2/6
f 207/2/6 205/2/6 208/2/6
f 206/2/6 207/2/6 209/2/6
f 207/3/6 208/3/6 209/3/6
f 208/2/6 205/2/6 210/2/6
f 209/3/6 208/3/6 210/3/6
f 200/2/6 206/2/6 211/2/6
f 206/2/6 209/2/6 211/2/6
f 209/2/6 210/2/6 211/2/6
f 211/2/6 210/2/6 212/2/6
f 210/2/6 205/2/6 213/2/6
f 212/2/6 210/2/6 213/2/6
f 213/2/6 205/2/6 214/2/6
f 212/2/6 213/2/6 215/2/6
f 215/2/6 213/2/6 216/2/6
f 212/2/6 215/2/6 217/2/6
f 217/2/6 215/2/6 218/2/6
f 218/2/6 215/2/6 219/2/6
f 215/1/6 216/1/6 220/1/6
f 219/2/6 215/2/6 220/2/6
f 216/2/6 213/2/6 221/2/6
f 220/1/6 216/1/6 221/1/6
f 221/2/6 213/2/6 222/2/6
f 222/2/6 213/2/6 223/2/6
f 223/2/6 213/2/6 224/2/6
f 218/2/6 219/2/6 225/2/6
f 225/2/6 219/2/6 226/2/6
f 222/2/6 223/2/6 227/2/6
f 227/2/6 223/2/6 228/2/6
f 220/1/6 221/1/6 229/1/6
f 229/1/6 221/1/6 230/1/6
f 230/1/6 221/1/6 231/1/6
f 231/1/6 232/1/6 233/1/6
f 230/1/6 231/1/6 233/1/6
f 233/1/6 232/1/6 234/1/6
