# MagicaVoxel @ Ephtracy

# group
g sinaasappel powerup

# material
mtllib sinaasappel powerup.mtl
usemtl palette

# normals
vn -1 0 0
vn 1 0 0
vn 0 0 1
vn 0 0 -1
vn 0 -1 0
vn 0 1 0

# texcoords
vt 0.00195313 0.5
vt 0.0683594 0.5
vt 0.888672 0.5
vt 0.939453 0.5
vt 0.958984 0.5
vt 0.994141 0.5

# verts
v -10 0 -5
v -10 0 -8
v -10 1 -5
v -10 1 -8
v -9 0 -4
v -9 0 -5
v -9 0 -8
v -9 0 -9
v -9 1 -4
v -9 1 -5
v -9 1 -8
v -9 1 -9
v -8 0 4
v -8 0 -2
v -8 0 -3
v -8 0 -4
v -8 0 -9
v -8 0 -10
v -8 1 4
v -8 1 -2
v -8 1 -3
v -8 1 -4
v -8 1 -9
v -8 1 -10
v -7 0 6
v -7 0 4
v -7 0 -2
v -7 0 -3
v -7 1 6
v -7 1 4
v -7 1 -2
v -7 1 -3
v -6 0 7
v -6 0 6
v -6 1 7
v -6 1 6
v -5 0 8
v -5 0 7
v -5 1 8
v -5 1 7
v -4 0 9
v -4 0 8
v -4 0 -8
v -4 0 -9
v -4 1 9
v -4 1 8
v -4 1 -8
v -4 1 -9
v -3 0 -9
v -3 0 -10
v -3 1 -9
v -3 1 -10
v -2 0 10
v -2 0 9
v -2 1 10
v -2 1 9
v -6 0 -9
v -6 0 -10
v -6 1 -9
v -6 1 -10
v -5 0 -8
v -5 0 -9
v -5 1 -8
v -5 1 -9
v -1 0 -9
v -1 0 -10
v -1 1 -9
v -1 1 -10
v 0 0 -8
v 0 0 -9
v 0 1 -8
v 0 1 -9
v 4 0 10
v 4 0 9
v 4 1 10
v 4 1 9
v 6 0 9
v 6 0 8
v 6 1 9
v 6 1 8
v 7 0 8
v 7 0 7
v 7 0 -5
v 7 0 -6
v 7 0 -7
v 7 0 -8
v 7 1 8
v 7 1 7
v 7 1 -5
v 7 1 -6
v 7 1 -7
v 7 1 -8
v 8 0 7
v 8 0 6
v 8 0 -4
v 8 0 -5
v 8 0 -6
v 8 0 -7
v 8 1 7
v 8 1 6
v 8 1 -4
v 8 1 -5
v 8 1 -6
v 8 1 -7
v 9 0 6
v 9 0 4
v 9 0 -2
v 9 0 -4
v 9 1 6
v 9 1 4
v 9 1 -2
v 9 1 -4
v 10 0 4
v 10 0 -2
v 10 1 4
v 10 1 -2
v -2 0 10
v -2 1 10
v 4 0 10
v 4 1 10
v -4 0 9
v -4 1 9
v -2 0 9
v -2 1 9
v 4 0 9
v 4 1 9
v 6 0 9
v 6 1 9
v -5 0 8
v -5 1 8
v -4 0 8
v -4 1 8
v 6 0 8
v 6 1 8
v 7 0 8
v 7 1 8
v -6 0 7
v -6 1 7
v -5 0 7
v -5 1 7
v 7 0 7
v 7 1 7
v 8 0 7
v 8 1 7
v -7 0 6
v -7 1 6
v -6 0 6
v -6 1 6
v 8 0 6
v 8 1 6
v 9 0 6
v 9 1 6
v -8 0 4
v -8 1 4
v -7 0 4
v -7 1 4
v 9 0 4
v 9 1 4
v 10 0 4
v 10 1 4
v -8 0 -3
v -8 1 -3
v -7 0 -3
v -7 1 -3
v -9 0 -4
v -9 1 -4
v -8 0 -4
v -8 1 -4
v -10 0 -5
v -10 1 -5
v -9 0 -5
v -9 1 -5
v 7 0 -6
v 7 1 -6
v 8 0 -6
v 8 1 -6
v -8 0 -2
v -8 1 -2
v -7 0 -2
v -7 1 -2
v 9 0 -2
v 9 1 -2
v 10 0 -2
v 10 1 -2
v 8 0 -4
v 8 1 -4
v 9 0 -4
v 9 1 -4
v 7 0 -5
v 7 1 -5
v 8 0 -5
v 8 1 -5
v 7 0 -7
v 7 1 -7
v 8 0 -7
v 8 1 -7
v -10 0 -8
v -10 1 -8
v -9 0 -8
v -9 1 -8
v -5 0 -8
v -5 1 -8
v -4 0 -8
v -4 1 -8
v 0 0 -8
v 0 1 -8
v 7 0 -8
v 7 1 -8
v -9 0 -9
v -9 1 -9
v -8 0 -9
v -8 1 -9
v -6 0 -9
v -6 1 -9
v -5 0 -9
v -5 1 -9
v -4 0 -9
v -4 1 -9
v -3 0 -9
v -3 1 -9
v -1 0 -9
v -1 1 -9
v 0 0 -9
v 0 1 -9
v -8 0 -10
v -8 1 -10
v -6 0 -10
v -6 1 -10
v -3 0 -10
v -3 1 -10
v -1 0 -10
v -1 1 -10
v -2 0 10
v 4 0 10
v -4 0 9
v -2 0 9
v 4 0 9
v 6 0 9
v -5 0 8
v -4 0 8
v -2 0 8
v 2 0 8
v 3 0 8
v 4 0 8
v 6 0 8
v 7 0 8
v -6 0 7
v -5 0 7
v -4 0 7
v -2 0 7
v -1 0 7
v 2 0 7
v 3 0 7
v 6 0 7
v 7 0 7
v 8 0 7
v -7 0 6
v -6 0 6
v -5 0 6
v -2 0 6
v -1 0 6
v 5 0 6
v 6 0 6
v 7 0 6
v 8 0 6
v 9 0 6
v 5 0 5
v 6 0 5
v -8 0 4
v -7 0 4
v -6 0 4
v -5 0 4
v -4 0 4
v 0 0 4
v 1 0 4
v 8 0 4
v 9 0 4
v 10 0 4
v -5 0 3
v -4 0 3
v 0 0 3
v 1 0 3
v 4 0 2
v 5 0 2
v -2 0 1
v -1 0 1
v 4 0 1
v 5 0 1
v -6 0 -0
v -5 0 -0
v -2 0 -0
v -1 0 -0
v 7 0 -0
v 8 0 -0
v -6 0 -1
v -5 0 -1
v 1 0 -1
v 2 0 -1
v 7 0 -1
v 8 0 -1
v -8 0 -2
v -7 0 -2
v -6 0 -2
v 1 0 -2
v 2 0 -2
v 8 0 -2
v 9 0 -2
v 10 0 -2
v -8 0 -3
v -7 0 -3
v -3 0 -3
v -1 0 -3
v 2 0 -3
v 3 0 -3
v 4 0 -3
v 5 0 -3
v -9 0 -4
v -8 0 -4
v -6 0 -4
v -5 0 -4
v -4 0 -4
v -3 0 -4
v -1 0 -4
v 0 0 -4
v 1 0 -4
v 2 0 -4
v 4 0 -4
v 5 0 -4
v 7 0 -4
v 8 0 -4
v 9 0 -4
v -10 0 -5
v -9 0 -5
v -8 0 -5
v -7 0 -5
v -6 0 -5
v -5 0 -5
v -4 0 -5
v -3 0 -5
v -2 0 -5
v -1 0 -5
v 0 0 -5
v 1 0 -5
v 3 0 -5
v 5 0 -5
v 6 0 -5
v 7 0 -5
v 8 0 -5
v 5 0 -6
v 6 0 -6
v 7 0 -6
v 8 0 -6
v -7 0 -7
v -5 0 -7
v -2 0 -7
v 0 0 -7
v 1 0 -7
v 7 0 -7
v 8 0 -7
v -10 0 -8
v -9 0 -8
v -8 0 -8
v -6 0 -8
v -5 0 -8
v -4 0 -8
v -3 0 -8
v -1 0 -8
v 0 0 -8
v 7 0 -8
v -9 0 -9
v -8 0 -9
v -6 0 -9
v -5 0 -9
v -4 0 -9
v -3 0 -9
v -1 0 -9
v 0 0 -9
v -8 0 -10
v -6 0 -10
v -3 0 -10
v -1 0 -10
v -2 1 10
v 4 1 10
v -4 1 9
v -2 1 9
v 4 1 9
v 6 1 9
v -5 1 8
v -4 1 8
v -2 1 8
v 2 1 8
v 3 1 8
v 4 1 8
v 6 1 8
v 7 1 8
v -6 1 7
v -5 1 7
v -4 1 7
v -2 1 7
v -1 1 7
v 2 1 7
v 3 1 7
v 6 1 7
v 7 1 7
v 8 1 7
v -7 1 6
v -6 1 6
v -5 1 6
v -2 1 6
v -1 1 6
v 5 1 6
v 6 1 6
v 7 1 6
v 8 1 6
v 9 1 6
v 5 1 5
v 6 1 5
v -8 1 4
v -7 1 4
v -6 1 4
v -5 1 4
v -4 1 4
v 0 1 4
v 1 1 4
v 8 1 4
v 9 1 4
v 10 1 4
v -5 1 3
v -4 1 3
v 0 1 3
v 1 1 3
v 4 1 2
v 5 1 2
v -2 1 1
v -1 1 1
v 4 1 1
v 5 1 1
v -6 1 -0
v -5 1 -0
v -2 1 -0
v -1 1 -0
v 7 1 -0
v 8 1 -0
v -6 1 -1
v -5 1 -1
v 1 1 -1
v 2 1 -1
v 7 1 -1
v 8 1 -1
v -8 1 -2
v -7 1 -2
v -6 1 -2
v 1 1 -2
v 2 1 -2
v 8 1 -2
v 9 1 -2
v 10 1 -2
v -8 1 -3
v -7 1 -3
v -3 1 -3
v -1 1 -3
v 2 1 -3
v 3 1 -3
v 4 1 -3
v 5 1 -3
v -9 1 -4
v -8 1 -4
v -6 1 -4
v -5 1 -4
v -4 1 -4
v -3 1 -4
v -1 1 -4
v 0 1 -4
v 1 1 -4
v 2 1 -4
v 4 1 -4
v 5 1 -4
v 7 1 -4
v 8 1 -4
v 9 1 -4
v -10 1 -5
v -9 1 -5
v -8 1 -5
v -7 1 -5
v -6 1 -5
v -5 1 -5
v -4 1 -5
v -3 1 -5
v -2 1 -5
v -1 1 -5
v 0 1 -5
v 1 1 -5
v 3 1 -5
v 5 1 -5
v 6 1 -5
v 7 1 -5
v 8 1 -5
v 5 1 -6
v 6 1 -6
v 7 1 -6
v 8 1 -6
v -7 1 -7
v -5 1 -7
v -2 1 -7
v 0 1 -7
v 1 1 -7
v 7 1 -7
v 8 1 -7
v -10 1 -8
v -9 1 -8
v -8 1 -8
v -6 1 -8
v -5 1 -8
v -4 1 -8
v -3 1 -8
v -1 1 -8
v 0 1 -8
v 7 1 -8
v -9 1 -9
v -8 1 -9
v -6 1 -9
v -5 1 -9
v -4 1 -9
v -3 1 -9
v -1 1 -9
v 0 1 -9
v -8 1 -10
v -6 1 -10
v -3 1 -10
v -1 1 -10

# faces
f 3/6/1 2/6/1 1/6/1
f 4/6/1 2/6/1 3/6/1
f 9/6/1 6/6/1 5/6/1
f 10/6/1 6/6/1 9/6/1
f 11/6/1 8/6/1 7/6/1
f 12/6/1 8/6/1 11/6/1
f 19/6/1 14/6/1 13/6/1
f 20/6/1 14/6/1 19/6/1
f 21/6/1 16/6/1 15/6/1
f 22/6/1 16/6/1 21/6/1
f 23/6/1 18/6/1 17/6/1
f 24/6/1 18/6/1 23/6/1
f 29/6/1 26/6/1 25/6/1
f 30/6/1 26/6/1 29/6/1
f 31/6/1 28/6/1 27/6/1
f 32/6/1 28/6/1 31/6/1
f 35/6/1 34/6/1 33/6/1
f 36/6/1 34/6/1 35/6/1
f 39/6/1 38/6/1 37/6/1
f 40/6/1 38/6/1 39/6/1
f 45/6/1 42/6/1 41/6/1
f 46/6/1 42/6/1 45/6/1
f 47/6/1 44/6/1 43/6/1
f 48/6/1 44/6/1 47/6/1
f 51/6/1 50/6/1 49/6/1
f 52/6/1 50/6/1 51/6/1
f 55/6/1 54/6/1 53/6/1
f 56/6/1 54/6/1 55/6/1
f 57/6/2 58/6/2 59/6/2
f 59/6/2 58/6/2 60/6/2
f 61/6/2 62/6/2 63/6/2
f 63/6/2 62/6/2 64/6/2
f 65/6/2 66/6/2 67/6/2
f 67/6/2 66/6/2 68/6/2
f 69/6/2 70/6/2 71/6/2
f 71/6/2 70/6/2 72/6/2
f 73/6/2 74/6/2 75/6/2
f 75/6/2 74/6/2 76/6/2
f 77/6/2 78/6/2 79/6/2
f 79/6/2 78/6/2 80/6/2
f 81/6/2 82/6/2 87/6/2
f 87/6/2 82/6/2 88/6/2
f 83/6/2 84/6/2 89/6/2
f 89/6/2 84/6/2 90/6/2
f 85/6/2 86/6/2 91/6/2
f 91/6/2 86/6/2 92/6/2
f 93/6/2 94/6/2 99/6/2
f 99/6/2 94/6/2 100/6/2
f 95/6/2 96/6/2 101/6/2
f 101/6/2 96/6/2 102/6/2
f 97/6/2 98/6/2 103/6/2
f 103/6/2 98/6/2 104/6/2
f 105/6/2 106/6/2 109/6/2
f 109/6/2 106/6/2 110/6/2
f 107/6/2 108/6/2 111/6/2
f 111/6/2 108/6/2 112/6/2
f 113/6/2 114/6/2 115/6/2
f 115/6/2 114/6/2 116/6/2
f 119/6/3 118/6/3 117/6/3
f 120/6/3 118/6/3 119/6/3
f 123/6/3 122/6/3 121/6/3
f 124/6/3 122/6/3 123/6/3
f 127/6/3 126/6/3 125/6/3
f 128/6/3 126/6/3 127/6/3
f 131/6/3 130/6/3 129/6/3
f 132/6/3 130/6/3 131/6/3
f 135/6/3 134/6/3 133/6/3
f 136/6/3 134/6/3 135/6/3
f 139/6/3 138/6/3 137/6/3
f 140/6/3 138/6/3 139/6/3
f 143/6/3 142/6/3 141/6/3
f 144/6/3 142/6/3 143/6/3
f 147/6/3 146/6/3 145/6/3
f 148/6/3 146/6/3 147/6/3
f 151/6/3 150/6/3 149/6/3
f 152/6/3 150/6/3 151/6/3
f 155/6/3 154/6/3 153/6/3
f 156/6/3 154/6/3 155/6/3
f 159/6/3 158/6/3 157/6/3
f 160/6/3 158/6/3 159/6/3
f 163/6/3 162/6/3 161/6/3
f 164/6/3 162/6/3 163/6/3
f 167/6/3 166/6/3 165/6/3
f 168/6/3 166/6/3 167/6/3
f 171/6/3 170/6/3 169/6/3
f 172/6/3 170/6/3 171/6/3
f 175/6/3 174/6/3 173/6/3
f 176/6/3 174/6/3 175/6/3
f 177/6/4 178/6/4 179/6/4
f 179/6/4 178/6/4 180/6/4
f 181/6/4 182/6/4 183/6/4
f 183/6/4 182/6/4 184/6/4
f 185/6/4 186/6/4 187/6/4
f 187/6/4 186/6/4 188/6/4
f 189/6/4 190/6/4 191/6/4
f 191/6/4 190/6/4 192/6/4
f 193/6/4 194/6/4 195/6/4
f 195/6/4 194/6/4 196/6/4
f 197/6/4 198/6/4 199/6/4
f 199/6/4 198/6/4 200/6/4
f 201/6/4 202/6/4 203/6/4
f 203/6/4 202/6/4 204/6/4
f 205/6/4 206/6/4 207/6/4
f 207/6/4 206/6/4 208/6/4
f 209/6/4 210/6/4 211/6/4
f 211/6/4 210/6/4 212/6/4
f 213/6/4 214/6/4 215/6/4
f 215/6/4 214/6/4 216/6/4
f 217/6/4 218/6/4 219/6/4
f 219/6/4 218/6/4 220/6/4
f 221/6/4 222/6/4 223/6/4
f 223/6/4 222/6/4 224/6/4
f 225/6/4 226/6/4 227/6/4
f 227/6/4 226/6/4 228/6/4
f 229/6/4 230/6/4 231/6/4
f 231/6/4 230/6/4 232/6/4
f 236/6/5 234/6/5 233/6/5
f 237/6/5 234/6/5 236/6/5
f 240/6/5 236/6/5 235/6/5
f 241/2/5 237/2/5 236/2/5
f 241/6/5 236/6/5 240/6/5
f 242/2/5 237/2/5 241/2/5
f 243/2/5 237/2/5 242/2/5
f 244/6/5 238/6/5 237/6/5
f 244/2/5 237/2/5 243/2/5
f 245/6/5 238/6/5 244/6/5
f 248/6/5 240/6/5 239/6/5
f 249/2/5 241/2/5 240/2/5
f 249/2/5 242/2/5 241/2/5
f 249/6/5 240/6/5 248/6/5
f 250/2/5 242/2/5 249/2/5
f 251/2/5 242/2/5 250/2/5
f 252/1/5 243/1/5 242/1/5
f 252/2/5 242/2/5 251/2/5
f 253/2/5 244/2/5 243/2/5
f 253/1/5 243/1/5 252/1/5
f 253/2/5 245/2/5 244/2/5
f 254/6/5 246/6/5 245/6/5
f 254/2/5 245/2/5 253/2/5
f 255/6/5 246/6/5 254/6/5
f 258/6/5 248/6/5 247/6/5
f 259/2/5 250/2/5 249/2/5
f 259/2/5 249/2/5 248/2/5
f 259/6/5 248/6/5 258/6/5
f 260/1/5 251/1/5 250/1/5
f 260/2/5 250/2/5 259/2/5
f 261/2/5 253/2/5 252/2/5
f 261/1/5 251/1/5 260/1/5
f 261/2/5 252/2/5 251/2/5
f 261/2/5 255/2/5 254/2/5
f 261/2/5 254/2/5 253/2/5
f 262/2/5 255/2/5 261/2/5
f 263/2/5 255/2/5 262/2/5
f 264/6/5 256/6/5 255/6/5
f 264/2/5 255/2/5 263/2/5
f 265/6/5 256/6/5 264/6/5
f 267/2/5 259/2/5 258/2/5
f 267/2/5 260/2/5 259/2/5
f 267/1/5 263/1/5 262/1/5
f 267/2/5 261/2/5 260/2/5
f 267/2/5 262/2/5 261/2/5
f 268/2/5 265/2/5 264/2/5
f 268/1/5 263/1/5 267/1/5
f 268/2/5 264/2/5 263/2/5
f 270/6/5 258/6/5 257/6/5
f 271/2/5 267/2/5 258/2/5
f 271/2/5 268/2/5 267/2/5
f 271/6/5 258/6/5 270/6/5
f 272/2/5 268/2/5 271/2/5
f 273/2/5 268/2/5 272/2/5
f 274/2/5 268/2/5 273/2/5
f 275/2/5 268/2/5 274/2/5
f 276/6/5 266/6/5 265/6/5
f 276/2/5 268/2/5 275/2/5
f 276/2/5 265/2/5 268/2/5
f 277/6/5 266/6/5 276/6/5
f 279/2/5 271/2/5 270/2/5
f 279/2/5 272/2/5 271/2/5
f 279/1/5 273/1/5 272/1/5
f 280/2/5 274/2/5 273/2/5
f 280/1/5 273/1/5 279/1/5
f 281/1/5 275/1/5 274/1/5
f 281/2/5 274/2/5 280/2/5
f 282/2/5 277/2/5 276/2/5
f 282/1/5 275/1/5 281/1/5
f 282/2/5 276/2/5 275/2/5
f 283/2/5 280/2/5 279/2/5
f 283/2/5 277/2/5 282/2/5
f 283/2/5 282/2/5 281/2/5
f 283/2/5 281/2/5 280/2/5
f 284/2/5 277/2/5 283/2/5
f 285/2/5 283/2/5 279/2/5
f 286/2/5 283/2/5 285/2/5
f 287/1/5 284/1/5 283/1/5
f 287/2/5 283/2/5 286/2/5
f 288/2/5 277/2/5 284/2/5
f 288/1/5 284/1/5 287/1/5
f 289/2/5 279/2/5 270/2/5
f 289/2/5 285/2/5 279/2/5
f 290/2/5 285/2/5 289/2/5
f 291/1/5 286/1/5 285/1/5
f 291/2/5 285/2/5 290/2/5
f 292/2/5 287/2/5 286/2/5
f 292/1/5 286/1/5 291/1/5
f 292/2/5 288/2/5 287/2/5
f 293/2/5 277/2/5 288/2/5
f 293/2/5 288/2/5 292/2/5
f 294/2/5 277/2/5 293/2/5
f 295/1/5 290/1/5 289/1/5
f 295/2/5 289/2/5 270/2/5
f 296/2/5 292/2/5 291/2/5
f 296/1/5 290/1/5 295/1/5
f 296/2/5 291/2/5 290/2/5
f 296/2/5 293/2/5 292/2/5
f 297/2/5 293/2/5 296/2/5
f 298/2/5 293/2/5 297/2/5
f 299/1/5 294/1/5 293/1/5
f 299/2/5 293/2/5 298/2/5
f 300/2/5 277/2/5 294/2/5
f 300/1/5 294/1/5 299/1/5
f 301/6/5 270/6/5 269/6/5
f 302/2/5 295/2/5 270/2/5
f 302/6/5 270/6/5 301/6/5
f 302/2/5 296/2/5 295/2/5
f 302/2/5 297/2/5 296/2/5
f 303/2/5 297/2/5 302/2/5
f 304/1/5 298/1/5 297/1/5
f 304/2/5 297/2/5 303/2/5
f 305/2/5 299/2/5 298/2/5
f 305/1/5 298/1/5 304/1/5
f 305/2/5 300/2/5 299/2/5
f 306/2/5 277/2/5 300/2/5
f 306/2/5 300/2/5 305/2/5
f 307/6/5 278/6/5 277/6/5
f 307/2/5 277/2/5 306/2/5
f 308/6/5 278/6/5 307/6/5
f 310/6/5 303/6/5 302/6/5
f 311/2/5 306/2/5 305/2/5
f 311/2/5 305/2/5 304/2/5
f 311/2/5 304/2/5 303/2/5
f 312/2/5 306/2/5 311/2/5
f 313/2/5 306/2/5 312/2/5
f 314/2/5 306/2/5 313/2/5
f 315/2/5 306/2/5 314/2/5
f 316/2/5 306/2/5 315/2/5
f 318/6/5 310/6/5 309/6/5
f 319/6/5 303/6/5 310/6/5
f 319/2/5 311/2/5 303/2/5
f 319/6/5 310/6/5 318/6/5
f 320/2/5 311/2/5 319/2/5
f 321/2/5 311/2/5 320/2/5
f 322/6/5 312/6/5 311/6/5
f 322/2/5 311/2/5 321/2/5
f 323/2/5 313/2/5 312/2/5
f 323/6/5 312/6/5 322/6/5
f 324/2/5 313/2/5 323/2/5
f 325/2/5 313/2/5 324/2/5
f 326/3/5 314/3/5 313/3/5
f 326/2/5 313/2/5 325/2/5
f 327/2/5 315/2/5 314/2/5
f 327/1/5 316/1/5 315/1/5
f 328/2/5 306/2/5 316/2/5
f 328/1/5 316/1/5 327/1/5
f 329/2/5 306/2/5 328/2/5
f 330/6/5 307/6/5 306/6/5
f 330/2/5 306/2/5 329/2/5
f 331/6/5 307/6/5 330/6/5
f 333/6/5 318/6/5 317/6/5
f 334/5/5 319/5/5 318/5/5
f 334/6/5 318/6/5 333/6/5
f 335/5/5 319/5/5 334/5/5
f 336/6/5 320/6/5 319/6/5
f 336/5/5 319/5/5 335/5/5
f 337/2/5 321/2/5 320/2/5
f 337/6/5 320/6/5 336/6/5
f 338/6/5 322/6/5 321/6/5
f 338/2/5 321/2/5 337/2/5
f 339/5/5 323/5/5 322/5/5
f 339/6/5 322/6/5 338/6/5
f 340/5/5 323/5/5 339/5/5
f 341/6/5 324/6/5 323/6/5
f 341/5/5 323/5/5 340/5/5
f 342/2/5 325/2/5 324/2/5
f 342/6/5 324/6/5 341/6/5
f 343/3/5 326/3/5 325/3/5
f 343/2/5 325/2/5 342/2/5
f 344/2/5 327/2/5 314/2/5
f 344/3/5 326/3/5 343/3/5
f 344/2/5 329/2/5 328/2/5
f 344/3/5 314/3/5 326/3/5
f 344/2/5 328/2/5 327/2/5
f 345/2/5 329/2/5 344/2/5
f 346/2/5 329/2/5 345/2/5
f 347/6/5 330/6/5 329/6/5
f 347/2/5 329/2/5 346/2/5
f 348/6/5 330/6/5 347/6/5
f 349/2/5 346/2/5 345/2/5
f 349/3/5 344/3/5 343/3/5
f 349/3/5 345/3/5 344/3/5
f 350/6/5 347/6/5 346/6/5
f 350/2/5 346/2/5 349/2/5
f 351/6/5 347/6/5 350/6/5
f 353/4/5 336/4/5 335/4/5
f 353/4/5 337/4/5 336/4/5
f 353/5/5 334/5/5 333/5/5
f 353/5/5 335/5/5 334/5/5
f 354/6/5 338/6/5 337/6/5
f 354/4/5 337/4/5 353/4/5
f 355/5/5 339/5/5 338/5/5
f 355/4/5 341/4/5 340/4/5
f 355/4/5 342/4/5 341/4/5
f 355/5/5 340/5/5 339/5/5
f 356/6/5 343/6/5 342/6/5
f 356/4/5 342/4/5 355/4/5
f 357/3/5 351/3/5 350/3/5
f 357/6/5 343/6/5 356/6/5
f 357/3/5 350/3/5 349/3/5
f 357/3/5 349/3/5 343/3/5
f 358/6/5 352/6/5 351/6/5
f 358/3/5 351/3/5 357/3/5
f 359/6/5 352/6/5 358/6/5
f 360/6/5 333/6/5 332/6/5
f 361/5/5 354/5/5 353/5/5
f 361/6/5 333/6/5 360/6/5
f 361/5/5 353/5/5 333/5/5
f 362/5/5 354/5/5 361/5/5
f 363/5/5 354/5/5 362/5/5
f 364/6/5 338/6/5 354/6/5
f 364/5/5 354/5/5 363/5/5
f 365/5/5 355/5/5 338/5/5
f 365/6/5 338/6/5 364/6/5
f 365/5/5 356/5/5 355/5/5
f 366/5/5 356/5/5 365/5/5
f 367/5/5 356/5/5 366/5/5
f 368/6/5 357/6/5 356/6/5
f 368/5/5 356/5/5 367/5/5
f 368/6/5 358/6/5 357/6/5
f 369/6/5 358/6/5 368/6/5
f 370/6/5 362/6/5 361/6/5
f 371/5/5 363/5/5 362/5/5
f 371/6/5 362/6/5 370/6/5
f 372/6/5 364/6/5 363/6/5
f 372/5/5 363/5/5 371/5/5
f 373/6/5 364/6/5 372/6/5
f 374/6/5 366/6/5 365/6/5
f 375/5/5 367/5/5 366/5/5
f 375/6/5 366/6/5 374/6/5
f 376/6/5 368/6/5 367/6/5
f 376/5/5 367/5/5 375/5/5
f 377/6/5 368/6/5 376/6/5
f 378/6/5 372/6/5 371/6/5
f 379/6/5 372/6/5 378/6/5
f 380/6/5 376/6/5 375/6/5
f 381/6/5 376/6/5 380/6/5
f 382/6/6 383/6/6 385/6/6
f 385/6/6 383/6/6 386/6/6
f 384/6/6 385/6/6 389/6/6
f 385/2/6 386/2/6 390/2/6
f 389/6/6 385/6/6 390/6/6
f 390/2/6 386/2/6 391/2/6
f 391/2/6 386/2/6 392/2/6
f 386/6/6 387/6/6 393/6/6
f 392/2/6 386/2/6 393/2/6
f 393/6/6 387/6/6 394/6/6
f 388/6/6 389/6/6 397/6/6
f 389/2/6 390/2/6 398/2/6
f 390/2/6 391/2/6 398/2/6
f 397/6/6 389/6/6 398/6/6
f 398/2/6 391/2/6 399/2/6
f 399/2/6 391/2/6 400/2/6
f 391/1/6 392/1/6 401/1/6
f 400/2/6 391/2/6 401/2/6
f 392/2/6 393/2/6 402/2/6
f 401/1/6 392/1/6 402/1/6
f 393/2/6 394/2/6 402/2/6
f 394/6/6 395/6/6 403/6/6
f 402/2/6 394/2/6 403/2/6
f 403/6/6 395/6/6 404/6/6
f 396/6/6 397/6/6 407/6/6
f 398/2/6 399/2/6 408/2/6
f 397/2/6 398/2/6 408/2/6
f 407/6/6 397/6/6 408/6/6
f 399/1/6 400/1/6 409/1/6
f 408/2/6 399/2/6 409/2/6
f 401/2/6 402/2/6 410/2/6
f 409/1/6 400/1/6 410/1/6
f 400/2/6 401/2/6 410/2/6
f 403/2/6 404/2/6 410/2/6
f 402/2/6 403/2/6 410/2/6
f 410/2/6 404/2/6 411/2/6
f 411/2/6 404/2/6 412/2/6
f 404/6/6 405/6/6 413/6/6
f 412/2/6 404/2/6 413/2/6
f 413/6/6 405/6/6 414/6/6
f 407/2/6 408/2/6 416/2/6
f 408/2/6 409/2/6 416/2/6
f 411/1/6 412/1/6 416/1/6
f 409/2/6 410/2/6 416/2/6
f 410/2/6 411/2/6 416/2/6
f 413/2/6 414/2/6 417/2/6
f 416/1/6 412/1/6 417/1/6
f 412/2/6 413/2/6 417/2/6
f 406/6/6 407/6/6 419/6/6
f 407/2/6 416/2/6 420/2/6
f 416/2/6 417/2/6 420/2/6
f 419/6/6 407/6/6 420/6/6
f 420/2/6 417/2/6 421/2/6
f 421/2/6 417/2/6 422/2/6
f 422/2/6 417/2/6 423/2/6
f 423/2/6 417/2/6 424/2/6
f 414/6/6 415/6/6 425/6/6
f 424/2/6 417/2/6 425/2/6
f 417/2/6 414/2/6 425/2/6
f 425/6/6 415/6/6 426/6/6
f 419/2/6 420/2/6 428/2/6
f 420/2/6 421/2/6 428/2/6
f 421/1/6 422/1/6 428/1/6
f 422/2/6 423/2/6 429/2/6
f 428/1/6 422/1/6 429/1/6
f 423/1/6 424/1/6 430/1/6
f 429/2/6 423/2/6 430/2/6
f 425/2/6 426/2/6 431/2/6
f 430/1/6 424/1/6 431/1/6
f 424/2/6 425/2/6 431/2/6
f 428/2/6 429/2/6 432/2/6
f 431/2/6 426/2/6 432/2/6
f 430/2/6 431/2/6 432/2/6
f 429/2/6 430/2/6 432/2/6
f 432/2/6 426/2/6 433/2/6
f 428/2/6 432/2/6 434/2/6
f 434/2/6 432/2/6 435/2/6
f 432/1/6 433/1/6 436/1/6
f 435/2/6 432/2/6 436/2/6
f 433/2/6 426/2/6 437/2/6
f 436/1/6 433/1/6 437/1/6
f 419/2/6 428/2/6 438/2/6
f 428/2/6 434/2/6 438/2/6
f 438/2/6 434/2/6 439/2/6
f 434/1/6 435/1/6 440/1/6
f 439/2/6 434/2/6 440/2/6
f 435/2/6 436/2/6 441/2/6
f 440/1/6 435/1/6 441/1/6
f 436/2/6 437/2/6 441/2/6
f 437/2/6 426/2/6 442/2/6
f 441/2/6 437/2/6 442/2/6
f 442/2/6 426/2/6 443/2/6
f 438/1/6 439/1/6 444/1/6
f 419/2/6 438/2/6 444/2/6
f 440/2/6 441/2/6 445/2/6
f 444/1/6 439/1/6 445/1/6
f 439/2/6 440/2/6 445/2/6
f 441/2/6 442/2/6 445/2/6
f 445/2/6 442/2/6 446/2/6
f 446/2/6 442/2/6 447/2/6
f 442/1/6 443/1/6 448/1/6
f 447/2/6 442/2/6 448/2/6
f 443/2/6 426/2/6 449/2/6
f 448/1/6 443/1/6 449/1/6
f 418/6/6 419/6/6 450/6/6
f 419/2/6 444/2/6 451/2/6
f 450/6/6 419/6/6 451/6/6
f 444/2/6 445/2/6 451/2/6
f 445/2/6 446/2/6 451/2/6
f 451/2/6 446/2/6 452/2/6
f 446/1/6 447/1/6 453/1/6
f 452/2/6 446/2/6 453/2/6
f 447/2/6 448/2/6 454/2/6
f 453/1/6 447/1/6 454/1/6
f 448/2/6 449/2/6 454/2/6
f 449/2/6 426/2/6 455/2/6
f 454/2/6 449/2/6 455/2/6
f 426/6/6 427/6/6 456/6/6
f 455/2/6 426/2/6 456/2/6
f 456/6/6 427/6/6 457/6/6
f 451/6/6 452/6/6 459/6/6
f 454/2/6 455/2/6 460/2/6
f 453/2/6 454/2/6 460/2/6
f 452/2/6 453/2/6 460/2/6
f 460/2/6 455/2/6 461/2/6
f 461/2/6 455/2/6 462/2/6
f 462/2/6 455/2/6 463/2/6
f 463/2/6 455/2/6 464/2/6
f 464/2/6 455/2/6 465/2/6
f 458/6/6 459/6/6 467/6/6
f 459/6/6 452/6/6 468/6/6
f 452/2/6 460/2/6 468/2/6
f 467/6/6 459/6/6 468/6/6
f 468/2/6 460/2/6 469/2/6
f 469/2/6 460/2/6 470/2/6
f 460/6/6 461/6/6 471/6/6
f 470/2/6 460/2/6 471/2/6
f 461/2/6 462/2/6 472/2/6
f 471/6/6 461/6/6 472/6/6
f 472/2/6 462/2/6 473/2/6
f 473/2/6 462/2/6 474/2/6
f 462/3/6 463/3/6 475/3/6
f 474/2/6 462/2/6 475/2/6
f 463/2/6 464/2/6 476/2/6
f 464/1/6 465/1/6 476/1/6
f 465/2/6 455/2/6 477/2/6
f 476/1/6 465/1/6 477/1/6
f 477/2/6 455/2/6 478/2/6
f 455/6/6 456/6/6 479/6/6
f 478/2/6 455/2/6 479/2/6
f 479/6/6 456/6/6 480/6/6
f 466/6/6 467/6/6 482/6/6
f 467/5/6 468/5/6 483/5/6
f 482/6/6 467/6/6 483/6/6
f 483/5/6 468/5/6 484/5/6
f 468/6/6 469/6/6 485/6/6
f 484/5/6 468/5/6 485/5/6
f 469/2/6 470/2/6 486/2/6
f 485/6/6 469/6/6 486/6/6
f 470/6/6 471/6/6 487/6/6
f 486/2/6 470/2/6 487/2/6
f 471/5/6 472/5/6 488/5/6
f 487/6/6 471/6/6 488/6/6
f 488/5/6 472/5/6 489/5/6
f 472/6/6 473/6/6 490/6/6
f 489/5/6 472/5/6 490/5/6
f 473/2/6 474/2/6 491/2/6
f 490/6/6 473/6/6 491/6/6
f 474/3/6 475/3/6 492/3/6
f 491/2/6 474/2/6 492/2/6
f 463/2/6 476/2/6 493/2/6
f 492/3/6 475/3/6 493/3/6
f 477/2/6 478/2/6 493/2/6
f 475/3/6 463/3/6 493/3/6
f 476/2/6 477/2/6 493/2/6
f 493/2/6 478/2/6 494/2/6
f 494/2/6 478/2/6 495/2/6
f 478/6/6 479/6/6 496/6/6
f 495/2/6 478/2/6 496/2/6
f 496/6/6 479/6/6 497/6/6
f 494/2/6 495/2/6 498/2/6
f 492/3/6 493/3/6 498/3/6
f 493/3/6 494/3/6 498/3/6
f 495/6/6 496/6/6 499/6/6
f 498/2/6 495/2/6 499/2/6
f 499/6/6 496/6/6 500/6/6
f 484/4/6 485/4/6 502/4/6
f 485/4/6 486/4/6 502/4/6
f 482/5/6 483/5/6 502/5/6
f 483/5/6 484/5/6 502/5/6
f 486/6/6 487/6/6 503/6/6
f 502/4/6 486/4/6 503/4/6
f 487/5/6 488/5/6 504/5/6
f 489/4/6 490/4/6 504/4/6
f 490/4/6 491/4/6 504/4/6
f 488/5/6 489/5/6 504/5/6
f 491/6/6 492/6/6 505/6/6
f 504/4/6 491/4/6 505/4/6
f 499/3/6 500/3/6 506/3/6
f 505/6/6 492/6/6 506/6/6
f 498/3/6 499/3/6 506/3/6
f 492/3/6 498/3/6 506/3/6
f 500/6/6 501/6/6 507/6/6
f 506/3/6 500/3/6 507/3/6
f 507/6/6 501/6/6 508/6/6
f 481/6/6 482/6/6 509/6/6
f 502/5/6 503/5/6 510/5/6
f 509/6/6 482/6/6 510/6/6
f 482/5/6 502/5/6 510/5/6
f 510/5/6 503/5/6 511/5/6
f 511/5/6 503/5/6 512/5/6
f 503/6/6 487/6/6 513/6/6
f 512/5/6 503/5/6 513/5/6
f 487/5/6 504/5/6 514/5/6
f 513/6/6 487/6/6 514/6/6
f 504/5/6 505/5/6 514/5/6
f 514/5/6 505/5/6 515/5/6
f 515/5/6 505/5/6 516/5/6
f 505/6/6 506/6/6 517/6/6
f 516/5/6 505/5/6 517/5/6
f 506/6/6 507/6/6 517/6/6
f 517/6/6 507/6/6 518/6/6
f 510/6/6 511/6/6 519/6/6
f 511/5/6 512/5/6 520/5/6
f 519/6/6 511/6/6 520/6/6
f 512/6/6 513/6/6 521/6/6
f 520/5/6 512/5/6 521/5/6
f 521/6/6 513/6/6 522/6/6
f 514/6/6 515/6/6 523/6/6
f 515/5/6 516/5/6 524/5/6
f 523/6/6 515/6/6 524/6/6
f 516/6/6 517/6/6 525/6/6
f 524/5/6 516/5/6 525/5/6
f 525/6/6 517/6/6 526/6/6
f 520/6/6 521/6/6 527/6/6
f 527/6/6 521/6/6 528/6/6
f 524/6/6 525/6/6 529/6/6
f 529/6/6 525/6/6 530/6/6
